<?xml version="1.0" encoding="utf-8"?>
<!-- Generator: Adobe Illustrator 23.0.0, SVG Export Plug-In . SVG Version: 6.00 Build 0)  -->
<svg version="1.1" id="Layer_1" xmlns="http://www.w3.org/2000/svg" xmlns:xlink="http://www.w3.org/1999/xlink" x="0px" y="0px"
	 viewBox="0 0 31 38.8" style="enable-background:new 0 0 31 38.8;" xml:space="preserve">
<style type="text/css">
	.st0{fill:#FF0055;}
	.st1{fill:#1A264E;}
</style>
<g id="Group_1" transform="translate(0 0)">
	<path id="Path_1" class="st0" d="M28.9,32.1c-2.6,4.2-7.2,6.8-12.1,6.8H6.8V21.7l2.6,0h4.2v10.4h3.3c4.1,0,7.5-3.4,7.5-7.5
		c0-0.2,0-0.5,0-0.7c-0.4-3.8-3.6-6.8-7.4-6.8H6.8l0-6.4v-0.4h10c7.6,0,13.8,5.9,14.2,13.5c0,0.2,0,0.5,0,0.7
		C31.1,27.2,30.3,29.8,28.9,32.1z"/>
	<path id="Path_2" class="st1" d="M22.2,6.8C19.6,2.6,15,0,10.1,0H0v17.1l2.6,0h4.2V6.8h3.3c4.1,0,7.5,3.4,7.5,7.5
		c0,0.2,0,0.5,0,0.7c-0.4,3.8-3.6,6.8-7.4,6.8H6.8v6.8h3.3c7.6,0,13.8-5.9,14.2-13.5c0-0.2,0-0.5,0-0.7C24.3,11.6,23.6,9,22.2,6.8z"
		/>
</g>
</svg>
